<?xml version="1.0" encoding="utf-8"?>
<!-- Generator: Adobe Illustrator 16.0.0, SVG Export Plug-In . SVG Version: 6.00 Build 0)  -->
<!DOCTYPE svg PUBLIC "-//W3C//DTD SVG 1.1//EN" "http://www.w3.org/Graphics/SVG/1.1/DTD/svg11.dtd">
<svg version="1.1" id="Layer_2" xmlns="http://www.w3.org/2000/svg" xmlns:xlink="http://www.w3.org/1999/xlink" x="0px" y="0px"
	 width="343.809px" height="188.803px" viewBox="0 0 343.809 188.803" enable-background="new 0 0 343.809 188.803"
	 xml:space="preserve">
<g>
	<g>
		<path fill="#1B3281" d="M166.052,80c-1.039,1.291-3.81,3.715-8.06,3.715c-6.328,0-11.428-4.817-11.428-11.459
			s5.1-11.459,11.428-11.459c4.533,0.094,8.06,2.33,10.011,5.792l-2.613,0.661c-1.511-2.424-4.313-3.935-7.398-3.935
			c-5.037,0-8.784,3.62-8.784,8.94c0,5.352,3.873,8.941,8.878,8.941c4.313,0,7.146-2.55,7.997-4.439v-2.739h-6.737v-2.141h8.972
			v11.428h-2.266c0-2.582,0.031-3.274,0.031-3.306H166.052z"/>
		<path fill="#1B3281" d="M187.524,80.851v2.424h-14.388V61.237h2.582v19.613H187.524z"/>
		<path fill="#1B3281" d="M199.96,60.797c6.328,0,11.459,4.816,11.459,11.459s-5.131,11.459-11.459,11.459
			s-11.428-4.817-11.428-11.459S193.632,60.797,199.96,60.797z M199.96,81.197c4.974,0,8.783-3.652,8.783-8.941
			c0-5.352-3.809-8.94-8.783-8.94c-5.006,0-8.783,3.589-8.783,8.94C191.177,77.545,194.954,81.197,199.96,81.197z"/>
		<path fill="#1B3281" d="M223.699,61.237c3.778,0,6.359,2.235,6.359,5.415c0,2.235-1.889,4.156-3.652,4.502v0.031
			c2.141,0.283,5.069,2.456,5.069,5.604c0,3.81-2.645,6.485-7.272,6.485h-8.784V61.237H223.699z M223.196,70.398
			c2.55,0,4.282-1.605,4.282-3.494c0-2.078-1.732-3.432-4.282-3.432h-5.195v6.926H223.196z M224.046,81.04
			c2.707,0,4.754-1.637,4.754-4.282c0-2.518-2.236-4.313-4.912-4.313h-5.887v8.594H224.046z"/>
		<path fill="#1B3281" d="M249.201,77.514h-11.05l-2.456,5.761h-2.77l9.57-22.038h2.361l9.57,22.038h-2.771L249.201,77.514z
			 M248.225,75.215l-3.495-8.185c-0.472-1.134-1.007-2.676-1.039-2.676h-0.032c-0.031,0-0.567,1.542-1.039,2.676l-3.495,8.185
			H248.225z"/>
		<path fill="#1B3281" d="M271.964,80.851v2.424h-14.388V61.237h2.582v19.613H271.964z"/>
		<path fill="#1B3281" d="M157.394,92.721c6.297,0,11.396,4.534,11.396,11.145c0,6.517-5.037,10.893-11.207,10.893h-9.477V92.721
			H157.394z M157.583,112.334c4.596,0,8.563-3.211,8.563-8.468c0-5.352-3.966-8.721-8.752-8.721h-6.705v17.189H157.583z"/>
		<path fill="#1B3281" d="M187.713,112.334v2.424h-14.891V92.721h14.703v2.424h-12.121v6.8h9.728v2.299h-9.728v8.09H187.713z"/>
		<path fill="#1B3281" d="M207.516,112.334v2.424h-14.891V92.721h14.702v2.424h-12.121v6.8h9.728v2.299h-9.728v8.09H207.516z"/>
		<path fill="#1B3281" d="M219.197,92.721c5.1,0,8.185,2.645,8.185,7.021c0,4.375-3.085,7.052-8.185,7.052h-4.187v7.965h-2.582
			V92.721H219.197z M219.134,104.37c3.621,0,5.604-1.763,5.604-4.627c0-2.959-2.141-4.597-5.604-4.597h-4.124v9.224H219.134z"/>
		<path fill="#1B3281" d="M246.335,92.721v2.424h-7.398v19.613h-2.55V95.146h-7.367v-2.424H246.335z"/>
		<path fill="#1B3281" d="M264.847,112.334v2.424h-14.891V92.721h14.703v2.424h-12.121v6.8h9.728v2.299h-9.728v8.09H264.847z"/>
		<path fill="#1B3281" d="M285.878,98.734c-1.511-2.424-4.313-3.935-7.398-3.935c-5.037,0-8.784,3.621-8.784,8.941
			s3.841,8.909,8.784,8.909c3.368,0,6.328-1.794,7.776-4.565l2.55,0.693c-1.826,3.904-5.729,6.422-10.326,6.422
			c-6.328,0-11.428-4.816-11.428-11.459s5.1-11.459,11.428-11.459c4.313,0,8.028,2.267,10.011,5.792L285.878,98.734z"/>
		<path fill="#1B3281" d="M309.428,92.721v22.038h-2.55v-10.2H294.82v10.2h-2.582V92.721h2.582v9.414h12.058v-9.414H309.428z"/>
		<path fill="#1B3281" d="M150.688,126.629v7.461h9.413v2.33h-9.413v9.822h-2.582v-22.037h14.388v2.424H150.688z"/>
		<path fill="#1B3281" d="M175.844,123.764c6.328,0,11.459,4.817,11.459,11.459s-5.132,11.459-11.459,11.459
			c-6.328,0-11.428-4.817-11.428-11.459S169.516,123.764,175.844,123.764z M175.844,144.165c4.974,0,8.783-3.652,8.783-8.941
			c0-5.352-3.81-8.94-8.783-8.94c-5.006,0-8.784,3.588-8.784,8.94C167.06,140.513,170.838,144.165,175.844,144.165z"/>
		<path fill="#1B3281" d="M204.116,146.242l-4.974-8.248c-0.346,0.031-0.755,0.031-1.133,0.031h-4.124v8.217h-2.582v-22.037h6.706
			c5.163,0,8.248,2.707,8.248,6.958c0,3.148-1.668,5.383-4.596,6.328l5.352,8.752H204.116z M198.261,135.728
			c3.526,0,5.352-1.921,5.352-4.565c0-2.802-1.983-4.534-5.352-4.534h-4.376v9.099H198.261z"/>
		<path fill="#1B3281" d="M228.421,124.205v12.908c0,6.233-3.305,9.602-9.067,9.602c-5.761,0-9.035-3.369-9.035-9.602v-12.908h2.582
			v12.939c0,4.786,2.203,7.146,6.453,7.146c4.282,0,6.486-2.361,6.486-7.146v-12.939H228.421z"/>
		<path fill="#1B3281" d="M253.671,124.205v22.037h-2.55v-9.917c0-3.4,0.157-7.776,0.126-7.776h-0.031
			c-0.032,0-1.133,2.015-1.92,3.337l-5.132,8.941h-1.354l-5.131-8.941c-0.787-1.322-1.889-3.337-1.92-3.337h-0.032
			c-0.032,0,0.126,4.376,0.126,7.776v9.917h-2.55v-22.037h2.424l5.478,9.318c1.889,3.211,2.235,4.093,2.267,4.093h0.032
			c0.031,0,0.377-0.881,2.266-4.093l5.478-9.318H253.671z"/>
	</g>
	<g>
		<g>
			<path fill="#414042" d="M131.001,18.88v0.568h-1.732v4.593h-0.597v-4.593h-1.725V18.88H131.001z"/>
			<path fill="#414042" d="M136.618,18.88v5.161h-0.597v-2.323c0-0.796,0.037-1.821,0.029-1.821h-0.008
				c-0.007,0-0.265,0.472-0.449,0.782l-1.202,2.094h-0.317l-1.202-2.094c-0.185-0.31-0.443-0.782-0.45-0.782h-0.007
				c-0.008,0,0.029,1.025,0.029,1.821v2.323h-0.598V18.88h0.568l1.283,2.183c0.442,0.752,0.523,0.958,0.531,0.958h0.007
				c0.007,0,0.088-0.207,0.531-0.958l1.283-2.183H136.618z"/>
		</g>
	</g>
	<g>
		<path fill="#00C0F3" d="M122.14,158.946c-9.156,0-17.753-2.372-25.223-6.526l3.775-6.809
			c-7.767-4.315-14.085-10.907-18.084-18.867l11.395-5.714c-2.14-4.249-3.353-9.041-3.353-14.113c0-5.375,1.356-10.437,3.739-14.868
			l-11.22-6.01c2.902-5.388,6.875-10.119,11.651-13.882l-9.292-11.819c10.089-7.948,22.801-12.708,36.612-12.708V19.158
			c-48.39,0-87.759,39.37-87.759,87.759H55.89c0,4.849,0.538,9.572,1.533,14.127l6.403-1.398c1.096,5.022,2.838,9.803,5.112,14.268
			c5.363,10.53,13.75,19.267,24.026,25.049c0.083,0.047,0.163,0.099,0.246,0.146l0.02-0.035l0,0
			c8.563,4.761,18.417,7.48,28.912,7.48l0,0V158.946L122.14,158.946z M78.921,116.352h-0.002l0,0H78.921z"/>
		<g>
			<path fill="#0081C8" d="M75.635,130.241c4.704,9.361,12.151,17.103,21.282,22.179l-3.138,5.66l6.913-12.469
				c-10.953-6.084-19.048-16.683-21.779-29.285l-15.096,3.285c1.095,5.035,2.84,9.828,5.12,14.303
				c-0.03-0.096-0.063-0.184-0.102-0.262L75.635,130.241z"/>
			<path fill="#0081C8" d="M93.209,159.11l0.02-0.035c-0.083-0.046-0.172-0.083-0.266-0.111
				C93.046,159.011,93.125,159.063,93.209,159.11z"/>
			<polygon opacity="0.5" fill="#00AEEF" points="93.779,158.08 93.229,159.075 93.229,159.075 			"/>
			<path fill="#0081C8" d="M96.917,152.42c-9.131-5.076-16.578-12.818-21.282-22.179l-6.8,3.411
				c0.039,0.078,0.072,0.167,0.102,0.262c5.363,10.53,13.75,19.267,24.026,25.049c0.094,0.028,0.182,0.064,0.266,0.111l0.551-0.995
				L96.917,152.42z"/>
			<path opacity="0.5" fill="#00AEEF" d="M96.917,152.42c-9.131-5.076-16.578-12.818-21.282-22.179l-6.8,3.411
				c0.039,0.078,0.072,0.167,0.102,0.262c5.363,10.53,13.75,19.267,24.026,25.049c0.094,0.028,0.182,0.064,0.266,0.111l0.551-0.995
				L96.917,152.42z"/>
			<path fill="#1B3281" d="M122.14,19.158c-48.39,0-87.759,39.37-87.759,87.759H55.89c0-21.097,9.926-39.91,25.338-52.051
				l4.301,5.472c10.089-7.948,22.801-12.708,36.612-12.708V19.158z"/>
			<path fill="#002157" d="M55.89,106.917h6.965c0-18.88,8.882-35.714,22.674-46.579l-4.301-5.472
				C65.816,67.008,55.89,85.82,55.89,106.917z"/>
			<path fill="#034EA2" d="M76.343,82.383l6.826,3.657c2.902-5.388,6.875-10.119,11.651-13.882l-9.292-11.819
				c-13.792,10.865-22.674,27.698-22.674,46.579H55.89c0,4.849,0.538,9.572,1.533,14.127l13.961-3.048
				c-0.779-3.569-1.193-7.275-1.193-11.079C70.19,98.043,72.42,89.69,76.343,82.383z"/>
			<path fill="#00A3DF" d="M94.002,121.03c-2.14-4.249-3.353-9.041-3.353-14.113c0-5.375,1.356-10.437,3.739-14.868l-11.22-6.01
				c-3.352,6.223-5.27,13.326-5.27,20.878c0,3.238,0.359,6.393,1.022,9.434h-0.002c0.795,3.656,2.053,7.136,3.688,10.393
				L94.002,121.03z"/>
			<path fill="#0061AF" d="M75.705,130.206l6.902-3.462c-1.636-3.256-2.894-6.736-3.688-10.393l-7.535,1.645
				C72.32,122.288,73.783,126.381,75.705,130.206z"/>
			<path fill="#0081C8" d="M77.899,106.917c0-7.552,1.918-14.655,5.27-20.878l-6.826-3.657c-3.923,7.308-6.152,15.66-6.152,24.535
				c0,3.804,0.415,7.51,1.193,11.079l7.537-1.645C78.258,113.31,77.899,110.155,77.899,106.917z"/>
			<path fill="#00C0F3" d="M122.14,158.946c-9.156,0-17.753-2.372-25.223-6.526l-3.688,6.655c8.563,4.761,18.417,7.48,28.912,7.48
				l0,0V158.946L122.14,158.946z"/>
		</g>
	</g>
	<g>
		<g>
			<path fill="#414042" d="M150.483,164.822c0,1.04,0.577,1.42,1.436,1.42c0.429,0,0.792-0.083,1.238-0.297v1.089
				c-0.446,0.231-0.924,0.363-1.535,0.363c-1.37,0-2.41-0.676-2.41-2.409v-5.149h-1.188v-1.122h1.188v-2.575h1.271v2.575h2.706
				v1.122h-2.706V164.822z"/>
			<path fill="#414042" d="M157.034,167.249h-1.271v-12.048h1.271v5c0.561-0.924,1.452-1.667,2.921-1.667
				c2.063,0,3.268,1.386,3.268,3.417v5.297h-1.271v-4.984c0-1.584-0.858-2.575-2.36-2.575c-1.469,0-2.558,1.073-2.558,2.674V167.249
				z"/>
			<path fill="#414042" d="M170.021,166.341c1.172,0,1.998-0.479,2.69-1.205l0.792,0.709c-0.858,0.957-1.898,1.601-3.515,1.601
				c-2.344,0-4.258-1.799-4.258-4.457c0-2.475,1.733-4.456,4.093-4.456c2.525,0,3.977,2.014,3.977,4.522
				c0,0.115,0,0.248-0.016,0.396h-6.767C167.199,165.301,168.519,166.341,170.021,166.341z M172.513,162.512
				c-0.132-1.551-1.023-2.904-2.723-2.904c-1.486,0-2.607,1.238-2.773,2.904H172.513z"/>
			<path fill="#414042" d="M180.136,169.922c-1.419,0-2.74-0.396-3.878-1.188l0.578-0.991c0.974,0.709,2.063,1.089,3.285,1.089
				c1.881,0,3.102-1.04,3.102-3.037v-1.007c-0.743,0.99-1.782,1.799-3.35,1.799c-2.046,0-4.01-1.518-4.01-4.01
				c0-2.509,1.98-4.043,4.01-4.043c1.601,0,2.641,0.792,3.334,1.716v-1.535h1.271v7.047
				C184.477,168.52,182.761,169.922,180.136,169.922z M180.12,159.657c-1.618,0-2.955,1.106-2.955,2.888
				c0,1.75,1.37,2.921,2.955,2.921c1.617,0,3.135-1.156,3.135-2.905C183.255,160.795,181.737,159.657,180.12,159.657z"/>
			<path fill="#414042" d="M194.492,167.249v-1.716c-0.693,1.023-1.7,1.898-3.268,1.898c-2.046,0-4.077-1.618-4.077-4.44
				c0-2.805,2.03-4.456,4.077-4.456c1.584,0,2.607,0.858,3.268,1.815v-5.149h1.271v12.048H194.492z M191.456,159.673
				c-1.65,0-3.003,1.221-3.003,3.301c0,2.03,1.386,3.317,3.003,3.317c1.584,0,3.086-1.32,3.086-3.317
				C194.542,160.994,193.04,159.673,191.456,159.673z"/>
			<path fill="#414042" d="M203.37,158.749v1.089h-2.69v7.41h-1.271v-7.41h-1.172v-1.106h1.172v-0.742
				c0-1.865,0.94-2.855,2.575-2.855c0.594,0,0.99,0.066,1.402,0.215v1.105c-0.462-0.132-0.809-0.215-1.238-0.215
				c-0.99,0-1.485,0.594-1.485,1.816v0.693H203.37z"/>
			<path fill="#414042" d="M204.425,167.249v-1.733h1.518v1.733H204.425z"/>
			<path fill="#414042" d="M212.511,167.447c-2.558,0-4.423-2.013-4.423-4.439s1.882-4.473,4.456-4.473
				c2.559,0,4.439,2.014,4.439,4.439C216.983,165.4,215.085,167.447,212.511,167.447z M212.511,159.657
				c-1.848,0-3.12,1.469-3.12,3.317c0,1.848,1.354,3.334,3.152,3.334c1.849,0,3.136-1.469,3.136-3.301
				C215.68,161.142,214.31,159.657,212.511,159.657z"/>
			<path fill="#414042" d="M220.877,167.249h-1.271v-8.532h1.271v2.228c0.627-1.419,1.865-2.443,3.482-2.376v1.37h-0.099
				c-1.865,0-3.383,1.336-3.383,3.912V167.249z"/>
			<path fill="#414042" d="M230.052,169.922c-1.419,0-2.74-0.396-3.878-1.188l0.578-0.991c0.974,0.709,2.063,1.089,3.285,1.089
				c1.881,0,3.102-1.04,3.102-3.037v-1.007c-0.742,0.99-1.782,1.799-3.35,1.799c-2.047,0-4.011-1.518-4.011-4.01
				c0-2.509,1.98-4.043,4.011-4.043c1.601,0,2.641,0.792,3.333,1.716v-1.535h1.271v7.047
				C234.393,168.52,232.676,169.922,230.052,169.922z M230.036,159.657c-1.618,0-2.955,1.106-2.955,2.888
				c0,1.75,1.37,2.921,2.955,2.921c1.617,0,3.135-1.156,3.135-2.905C233.171,160.795,231.653,159.657,230.036,159.657z"/>
		</g>
	</g>
</g>
</svg>
